HIERARCHY
ROOT Hips
{
	OFFSET 0.000000 0.000000 0.000000
	CHANNELS 6 Xposition Yposition Zposition Zrotation Yrotation Xrotation 
	JOINT LHipJoint
	{
		OFFSET 0.000000 0.000000 0.000000
		CHANNELS 3 Zrotation Yrotation Xrotation
		JOINT LeftUpLeg
		{
			OFFSET 1.363060 -1.794630 0.839290
			CHANNELS 3 Zrotation Yrotation Xrotation
			JOINT LeftLeg
			{
				OFFSET 2.448110 -6.726130 0.000000
				CHANNELS 3 Zrotation Yrotation Xrotation
				JOINT LeftFoot
				{
					OFFSET 2.562200 -7.039590 0.000000
					CHANNELS 3 Zrotation Yrotation Xrotation
					JOINT LeftToeBase
					{
						OFFSET 0.157640 -0.433110 2.322550
						CHANNELS 3 Zrotation Yrotation Xrotation
						End Site
						{
							OFFSET 0.000000 0.000000 0.000000
						}
					}
				}
			}
		}
	}
	JOINT RHipJoint
	{
		OFFSET 0.000000 0.000000 0.000000
		CHANNELS 3 Zrotation Yrotation Xrotation
		JOINT RightUpLeg
		{
			OFFSET -1.305520 -1.794630 0.839290
			CHANNELS 3 Zrotation Yrotation Xrotation
			JOINT RightLeg
			{
				OFFSET -2.542530 -6.985550 0.000000
				CHANNELS 3 Zrotation Yrotation Xrotation
				JOINT RightFoot
				{
					OFFSET -2.568260 -7.056230 0.000000
					CHANNELS 3 Zrotation Yrotation Xrotation
					JOINT RightToeBase
					{
						OFFSET -0.164730 -0.452590 2.363150
						CHANNELS 3 Zrotation Yrotation Xrotation
						End Site
						{
							OFFSET 0.000000 0.000000 0.000000
						}
					}
				}
			}
		}
	}
}
MOTION
Frames: 22
Frame Time: 0.008333
24.425246 15.757688 4.094329 -10.083607 -83.642909 20.141384 -12.086725 7.191492 2.032480 7.398639 11.789555 18.243481 -0.504090 0.890348 6.038525 0.686149 3.113820 13.752694 0.906501 0.000000 -86.349000 8.457535 0.270153 1.095292 15.464526 -10.285514 -55.256809 1.736002 -3.747662 53.441141 -2.801394 -7.115502 -22.898267 2.114000 0.000000 -21.893700
24.172893 15.772114 4.050048 -10.704906 -83.535230 20.793938 -12.129961 7.303780 2.211887 7.701815 11.087934 17.775915 -0.289767 1.051093 7.499208 0.842565 3.444692 16.533302 1.065301 -0.000000 -86.429900 8.445367 0.171137 1.044727 15.682618 -10.284502 -54.537900 1.697071 -3.739513 54.098319 -2.866511 -7.271683 -23.635475 2.290800 0.000001 -19.093800
23.922636 15.789293 4.003893 -11.365760 -83.488066 21.461845 -12.177567 7.373513 2.376458 7.906723 10.325563 17.204314 -0.070626 1.193879 9.234896 1.026920 3.850304 19.217112 1.262300 -0.000000 -85.319800 8.429914 0.071753 0.987019 15.881208 -10.236634 -53.697765 1.671212 -3.716654 54.608684 -2.927209 -7.394054 -24.384622 2.467200 0.000000 -16.152200
23.675502 15.808874 3.955776 -11.991399 -83.503809 22.063833 -12.225401 7.394175 2.517236 8.012210 9.557850 16.511624 0.137079 1.313263 11.280784 1.225466 4.292240 21.662358 1.486700 -0.000000 -82.872099 8.417934 -0.026000 0.925413 16.037908 -10.142302 -52.735053 1.655470 -3.680726 54.978442 -2.983084 -7.488040 -25.129741 2.639800 0.000000 -13.211100
23.431774 15.830662 3.905826 -12.514147 -83.581879 22.530468 -12.266661 7.363857 2.627061 8.007660 8.816618 15.700532 0.319196 1.409000 13.629586 1.425069 4.779123 23.738600 1.742600 0.000000 -79.157600 8.415273 -0.120308 0.861281 16.134879 -10.007396 -51.647898 1.647900 -3.634010 55.215313 -3.034355 -7.560357 -25.862749 2.807100 -0.000000 -10.344200
23.192253 15.854388 3.854273 -12.894241 -83.718219 22.818118 -12.297832 7.285463 2.695931 7.909183 8.167977 14.745026 0.462834 1.486770 16.297265 1.609610 5.295627 25.301610 2.016300 -0.000000 -74.338800 8.426073 -0.211277 0.799049 16.163955 -9.835568 -50.443907 1.645849 -3.578367 55.329938 -3.082305 -7.623418 -26.572769 2.968900 -0.000000 -7.657200
22.957035 15.879897 3.801467 -13.094508 -83.905736 22.890667 -12.314429 7.166124 2.718252 7.720558 7.640845 13.637195 0.564042 1.557008 19.259617 1.769667 5.878220 26.258021 2.316700 0.000000 -68.795500 8.452754 -0.299191 0.741314 16.123515 -9.633623 -49.133561 1.647717 -3.515957 55.332195 -3.128763 -7.689677 -27.255522 3.126700 0.000000 -5.203000
22.726080 15.906978 3.747866 -13.091935 -84.134766 22.730549 -12.314934 7.015200 2.691734 7.449742 7.254781 12.364824 0.626080 1.631790 22.489119 1.900725 6.564693 26.550882 2.650300 -0.000001 -62.934900 8.495276 -0.384698 0.691059 16.019146 -9.407662 -47.734135 1.652377 -3.448671 55.232383 -3.176153 -7.771711 -27.910724 3.283900 -0.000000 -3.013000
22.499234 15.935631 3.693995 -12.847918 -84.391843 22.306674 -12.296976 6.840940 2.620065 7.089193 6.989153 10.935751 0.660385 1.720471 25.927560 2.007001 7.421315 26.193608 3.037200 0.000000 -57.353100 8.553497 -0.468957 0.648581 15.857533 -9.168470 -46.262632 1.659874 -3.378709 55.038116 -3.226378 -7.877926 -28.542107 3.443900 0.000000 -1.079600
22.276552 15.965730 3.640348 -12.351697 -84.664936 21.614089 -12.263736 6.650551 2.508247 6.646273 6.834901 9.345447 0.678460 1.829502 29.538649 2.092778 8.460414 25.194552 3.459100 0.000000 -52.206400 8.624284 -0.552566 0.614818 15.651892 -8.923683 -44.739386 1.670076 -3.307114 54.756715 -3.281653 -8.016547 -29.153754 -176.389400 0.000000 -0.601500
22.057599 15.997259 3.587403 -11.585119 -84.942425 20.643348 -12.218712 6.448781 2.364928 6.119344 6.760707 7.605594 0.692597 1.960124 33.264425 2.167107 9.694026 23.605031 3.892500 0.000000 -47.695499 8.704337 -0.635934 0.588224 15.414001 -8.682976 -43.180968 1.683590 -3.234631 54.392413 -3.343290 -8.190243 -29.751465 -176.212800 -0.000001 -2.059400
21.841773 16.030156 3.535556 -10.551172 -85.214933 19.404840 -12.167711 6.238240 2.198993 5.512779 6.738271 5.727147 0.711482 2.110092 37.049054 2.238993 11.101855 21.481716 4.289701 0.000000 -43.808700 8.788973 -0.718821 0.566444 15.157313 -8.453122 -41.601796 1.700928 -3.161191 53.947474 -3.412131 -8.399151 -30.339296 -176.024200 -0.000001 -3.322500
21.629048 16.064321 3.485184 -9.283176 -85.475083 17.938863 -12.117265 6.020423 2.019656 4.835261 6.740406 3.725346 0.739978 2.274484 40.833987 2.317224 12.643404 18.893753 4.592200 0.000000 -40.437800 8.872709 -0.801228 0.546903 14.895890 -8.238161 -40.011659 1.722423 -3.086042 53.422129 -3.488409 -8.641207 -30.917965 -175.822800 0.000000 -4.416300
21.419060 16.099631 3.436511 -7.841081 -85.718849 16.308022 -12.073209 5.795806 1.835195 4.098438 6.742638 1.617853 0.778843 2.447493 44.560073 2.409244 14.265069 15.920067 4.739801 0.000000 -37.406600 8.950220 -0.882479 0.526616 14.642654 -8.039343 -38.414990 1.748069 -3.007904 52.814707 -3.571482 -8.911666 -31.484148 -175.609599 0.000000 -5.358400
21.210946 16.135862 3.389714 -6.306017 -85.945538 14.599310 -12.039893 5.564977 1.653446 3.314732 6.722590 -0.576071 0.825782 2.623279 48.168801 2.520693 15.909577 12.659508 4.684899 0.000000 -34.602101 9.016918 -0.961550 0.503070 14.408577 -7.854048 -36.812987 1.777348 -2.925224 52.123025 -3.660055 -9.204368 -32.029839 -175.387600 0.000000 -6.155300
21.004842 16.172775 3.344807 -4.762062 -86.157608 12.897774 -12.018856 5.328260 1.480229 2.496074 6.662296 -2.836897 0.876622 2.797328 51.607527 2.653612 17.518453 9.216600 4.397900 -0.000000 -31.886200 9.070081 -1.036619 0.473741 14.200566 -7.678333 -35.203058 1.809233 -2.836591 51.344715 -3.751915 -9.511654 -32.542093 -175.161600 -0.000000 -6.804700
20.799835 16.210042 3.301809 -3.296540 -86.359166 11.293702 -12.009543 5.086581 1.320322 1.655628 6.550797 -5.148471 0.926660 2.966310 54.833373 2.805378 19.032243 5.691954 3.871000 -0.000000 -29.090800 9.108227 -1.106455 0.437899 14.023498 -7.505862 -33.581511 1.842424 -2.740777 50.477711 -3.844514 -9.825473 -33.005459 -174.938000 -0.000000 -7.296800
20.595926 16.247310 3.260608 -1.967240 -86.554868 9.843884 -12.008997 4.840255 1.176716 0.803539 6.381096 -7.495922 0.971960 3.127848 57.810418 2.969890 20.399711 2.193639 3.126700 0.000000 -26.169800 9.131757 -1.169535 0.394990 13.878072 -7.330696 -31.944268 1.875449 -2.637229 49.521064 -3.934929 -10.137636 -33.403236 -174.724200 0.000000 -7.618100
20.392108 16.284187 3.221069 -0.802721 -86.747500 8.579407 -12.012951 4.589256 1.051607 -0.051333 6.152430 -9.867361 1.009909 3.279292 60.510882 3.137773 21.575851 -1.177588 2.213301 -0.000000 -23.134600 9.142016 -1.226146 0.346294 13.762495 -7.147240 -30.287646 1.907019 -2.526135 48.474676 -4.020574 -10.442017 -33.719633 -174.527400 0.000000 -7.756900
20.188157 16.320222 3.183081 0.205833 -86.944687 7.490377 -12.016551 4.335229 0.946411 -0.903033 5.871694 -12.252443 1.038129 3.419256 62.913097 3.297918 22.523961 -4.333482 1.198501 0.000000 -20.056000 9.141313 -1.275401 0.293700 13.672096 -6.951640 -28.608527 1.935534 -2.407292 47.340839 -4.099008 -10.732168 -33.942233 -174.354300 -0.000000 -7.706100
19.983401 16.355041 3.146516 1.117171 -87.148210 6.516083 -12.013942 4.077881 0.860421 -1.748601 5.549909 -14.641358 1.055223 3.545242 65.000496 3.439277 23.216476 -7.208867 0.157300 0.000000 -16.994100 9.132789 -1.318240 0.239198 13.599498 -6.743109 -26.904483 1.960262 -2.281736 46.121178 -4.168475 -11.004409 -34.063159 -174.210100 0.000000 -7.463000
19.777167 16.388375 3.111197 2.029519 -87.361532 5.558857 -11.999248 3.817744 0.792550 -2.588353 5.200601 -17.023443 1.060491 3.654602 66.756514 3.552988 23.642114 -9.735495 -0.827301 0.000000 -14.235500 9.120172 -1.355335 0.184328 13.536110 -6.524049 -25.174408 1.980754 -2.150373 44.817674 -4.227767 -11.255986 -34.079187 -174.098400 -0.000000 -7.028700
